<svg width="32" height="32" viewBox="0 0 32 32" fill="none" xmlns="http://www.w3.org/2000/svg">
<g clip-path="url(#clip0_24_387)">
<path d="M13.5696 21H10.7589L10.5494 17.4805C10.4912 16.6407 10.4621 15.8918 10.4621 15.2338C10.4621 14.7316 10.4795 14.2554 10.5145 13.8052L8.64648 20.0519H5.94053L3.95035 13.8052C4.02019 14.5584 4.0551 15.2684 4.0551 15.9351C4.0551 16.4372 4.03764 16.961 4.00273 17.5065L3.79323 21H1L1.9078 12H5.52155L7.33715 18.1039L9.03055 12H12.6618L13.5696 21Z" fill="#141414"/>
<path d="M15.2827 21V12H22.4928L22.196 13.5195H18.1458V15.9091H21.6723V17.4286H18.1458V21H15.2827Z" fill="#141414"/>
<path d="M23.79 21V12H31L30.7032 13.5195H26.653V15.9091H30.1795V17.4286H26.653V21H23.79Z" fill="#141414"/>
<rect x="-1" y="15.5093" width="9.20395" height="1.52131" transform="rotate(-45 -1 15.5093)" fill="#3122E3"/>
<rect x="1.04663" y="15.5538" width="9.20395" height="1.52131" transform="rotate(-45 1.04663 15.5538)" fill="#2067F1" fill-opacity="0.97"/>
</g>
<defs>
<clipPath id="clip0_24_387">
<rect width="32" height="32" fill="white"/>
</clipPath>
</defs>
</svg>
