<svg width="22" height="22" viewBox="0 0 22 22" fill="none" xmlns="http://www.w3.org/2000/svg">
<path d="M14.075 18.1233L13.225 20.7162C13.1583 20.9122 13.0417 21.0726 12.875 21.1973C12.7083 21.3221 12.525 21.3845 12.325 21.3845C11.9917 21.3845 11.7208 21.2374 11.5125 20.9434C11.3042 20.6494 11.2667 20.3241 11.4 19.9677L15.2 9.22204C15.2833 9.02602 15.4083 8.86564 15.575 8.74089C15.7417 8.61615 15.925 8.55378 16.125 8.55378H16.875C17.075 8.55378 17.2583 8.61615 17.425 8.74089C17.5917 8.86564 17.7167 9.02602 17.8 9.22204L21.6 19.9945C21.7333 20.3331 21.7 20.6494 21.5 20.9434C21.3 21.2374 21.0333 21.3845 20.7 21.3845C20.4833 21.3845 20.2958 21.3221 20.1375 21.1973C19.9792 21.0726 19.8583 20.9033 19.775 20.6895L18.925 18.1233H14.075ZM8.05 12.8039L3.7 17.4283C3.51667 17.6244 3.2875 17.7268 3.0125 17.7357C2.7375 17.7446 2.5 17.6422 2.3 17.4283C2.11667 17.2323 2.025 16.9828 2.025 16.6799C2.025 16.3769 2.11667 16.1274 2.3 15.9314L6.65 11.2803C6.06667 10.6566 5.5375 9.94377 5.0625 9.14185C4.5875 8.33994 4.15 7.4311 3.75 6.41534H5.85C6.18333 7.11033 6.51667 7.71622 6.85 8.23301C7.18333 8.74981 7.58333 9.2666 8.05 9.78339C8.6 9.19531 9.17083 8.37112 9.7625 7.31081C10.3542 6.2505 10.8 5.23919 11.1 4.27689H1C0.716667 4.27689 0.479167 4.17442 0.2875 3.96949C0.0958333 3.76455 0 3.51061 0 3.20767C0 2.90472 0.0958333 2.65078 0.2875 2.44585C0.479167 2.24091 0.716667 2.13845 1 2.13845H7V1.06922C7 0.766276 7.09583 0.512336 7.2875 0.307401C7.47917 0.102467 7.71667 0 8 0C8.28333 0 8.52083 0.102467 8.7125 0.307401C8.90417 0.512336 9 0.766276 9 1.06922V2.13845H15C15.2833 2.13845 15.5208 2.24091 15.7125 2.44585C15.9042 2.65078 16 2.90472 16 3.20767C16 3.51061 15.9042 3.76455 15.7125 3.96949C15.5208 4.17442 15.2833 4.27689 15 4.27689H13.1C12.75 5.55996 12.225 6.87867 11.525 8.23301C10.825 9.58736 10.1333 10.6209 9.45 11.3338L11.85 13.9534L11.1 16.1453L8.05 12.8039ZM14.7 16.2522H18.3L16.5 10.7991L14.7 16.2522Z" fill="url(#paint0_linear_13_357)"/>
<defs>
<linearGradient id="paint0_linear_13_357" x1="10.84" y1="0" x2="10.84" y2="21.3845" gradientUnits="userSpaceOnUse">
<stop stop-color="#5547F1"/>
<stop offset="1" stop-color="#2067F1" stop-opacity="0.97"/>
</linearGradient>
</defs>
</svg>
