<svg width="20" height="18" viewBox="0 0 20 18" fill="none" xmlns="http://www.w3.org/2000/svg">
<path d="M13.25 8.0459L16 6.33514C16.1667 6.22822 16.25 6.07675 16.25 5.88072C16.25 5.6847 16.1667 5.53323 16 5.4263L13.25 3.71555C13.1 3.62645 12.9333 3.5819 12.75 3.5819C12.5667 3.5819 12.4 3.62645 12.25 3.71555L9.5 5.4263C9.33333 5.53323 9.25 5.6847 9.25 5.88072C9.25 6.07675 9.33333 6.22822 9.5 6.33514L12.25 8.0459C12.4 8.135 12.5667 8.17955 12.75 8.17955C12.9333 8.17955 13.1 8.135 13.25 8.0459ZM13.25 11.2803L15 10.2111C15.15 10.122 15.2708 9.99278 15.3625 9.82348C15.4542 9.65419 15.5 9.47153 15.5 9.27551V7.64494L13.25 9.03493C13.1 9.12403 12.9333 9.16858 12.75 9.16858C12.5667 9.16858 12.4 9.12403 12.25 9.03493L10 7.64494V9.27551C10 9.47153 10.0458 9.65419 10.1375 9.82348C10.2292 9.99278 10.35 10.122 10.5 10.2111L12.25 11.2803C12.4 11.3694 12.5667 11.414 12.75 11.414C12.9333 11.414 13.1 11.3694 13.25 11.2803ZM20 2.13845V14.9691C20 15.5572 19.8042 16.0606 19.4125 16.4794C19.0208 16.8982 18.55 17.1076 18 17.1076H13.95C13.6667 17.1076 13.4292 17.0051 13.2375 16.8002C13.0458 16.5952 12.95 16.3413 12.95 16.0383C12.95 15.7354 13.0458 15.4815 13.2375 15.2765C13.4292 15.0716 13.6667 14.9691 13.95 14.9691H18V2.13845H2V2.29883C2 2.60177 1.90417 2.85572 1.7125 3.06065C1.52083 3.26558 1.28333 3.36805 1 3.36805C0.716667 3.36805 0.479167 3.26558 0.2875 3.06065C0.0958333 2.85572 0 2.60177 0 2.29883V2.13845C0 1.55037 0.195833 1.04695 0.5875 0.628168C0.979167 0.209389 1.45 0 2 0H18C18.55 0 19.0208 0.209389 19.4125 0.628168C19.8042 1.04695 20 1.55037 20 2.13845ZM6 17.1076C5.73333 17.1076 5.5 17.0229 5.3 16.8536C5.1 16.6843 4.975 16.4571 4.925 16.172C4.74167 15.0493 4.27083 14.0959 3.5125 13.3118C2.75417 12.5277 1.85 12.0377 0.8 11.8416C0.55 11.806 0.354167 11.6768 0.2125 11.454C0.0708333 11.2313 0 10.9774 0 10.6922C0 10.3893 0.0916667 10.1353 0.275 9.9304C0.458333 9.72547 0.675 9.64082 0.925 9.67646C2.49167 9.89031 3.82917 10.5942 4.9375 11.7882C6.04583 12.9821 6.70833 14.4167 6.925 16.0918C6.95833 16.3769 6.88333 16.6175 6.7 16.8135C6.51667 17.0095 6.28333 17.1076 6 17.1076ZM10 17.1076C9.71667 17.1076 9.47917 17.0095 9.2875 16.8135C9.09583 16.6175 8.98333 16.368 8.95 16.0651C8.71667 13.7841 7.84583 11.8505 6.3375 10.2645C4.82917 8.67852 3.00833 7.76968 0.875 7.53802C0.608333 7.50238 0.395833 7.37764 0.2375 7.16379C0.0791667 6.94995 0 6.70046 0 6.41534C0 6.11239 0.0875 5.85399 0.2625 5.64015C0.4375 5.4263 0.65 5.3372 0.9 5.37284C3.58333 5.60451 5.86667 6.71828 7.75 8.71416C9.63333 10.71 10.7 13.1425 10.95 16.0116C10.9833 16.3146 10.9042 16.5729 10.7125 16.7868C10.5208 17.0006 10.2833 17.1076 10 17.1076ZM1.25 17.1076C0.9 17.1076 0.604167 16.9784 0.3625 16.72C0.120833 16.4616 0 16.1453 0 15.771C0 15.3968 0.120833 15.0805 0.3625 14.8221C0.604167 14.5637 0.9 14.4345 1.25 14.4345C1.6 14.4345 1.89583 14.5637 2.1375 14.8221C2.37917 15.0805 2.5 15.3968 2.5 15.771C2.5 16.1453 2.37917 16.4616 2.1375 16.72C1.89583 16.9784 1.6 17.1076 1.25 17.1076Z" fill="url(#paint0_linear_13_364)"/>
<defs>
<linearGradient id="paint0_linear_13_364" x1="10" y1="0" x2="10" y2="17.1076" gradientUnits="userSpaceOnUse">
<stop stop-color="#5245EA" stop-opacity="0.98"/>
<stop offset="1" stop-color="#2067F1"/>
</linearGradient>
</defs>
</svg>
