<svg width="84" height="34" viewBox="0 0 84 34" fill="none" xmlns="http://www.w3.org/2000/svg">
<path d="M35.144 34H27.416L26.84 20.992C26.68 17.888 26.6 15.12 26.6 12.688C26.6 10.832 26.648 9.07199 26.744 7.40799L21.608 30.496H14.168L8.69598 7.40799C8.88798 10.192 8.98398 12.816 8.98398 15.28C8.98398 17.136 8.93598 19.072 8.83998 21.088L8.26398 34H0.583984L3.07998 0.735992H13.016L18.008 23.296L22.664 0.735992H32.648L35.144 34Z" fill="#141414"/>
<path d="M39.8544 34V0.735992H59.6784L58.8624 6.35199H47.7264V15.184H57.4224V20.8H47.7264V34H39.8544Z" fill="#141414"/>
<path d="M63.245 34V0.735992H83.069L82.253 6.35199H71.117V15.184H80.813V20.8H71.117V34H63.245Z" fill="#141414"/>
</svg>
